<svg xmlns="http://www.w3.org/2000/svg" width="32" height="32" viewBox="0 0 32 32" fill="none">
  <!-- Background circle -->
  <circle cx="16" cy="16" r="15" fill="#E8DCC4"/>

  <!-- Speech bubble (communication) -->
  <path d="M9 11C9 9.89543 9.89543 9 11 9H21C22.1046 9 23 9.89543 23 11V17C23 18.1046 22.1046 19 21 19H17L14 22V19H11C9.89543 19 9 18.1046 9 17V11Z" fill="#FFF8DC"/>

  <!-- Pencil (drawing) - tilted -->
  <g transform="translate(18, 16) rotate(45)">
    <!-- Pencil body -->
    <rect x="-1.5" y="-6" width="3" height="8" fill="#CD853F" rx="0.5"/>
    <!-- Pencil tip -->
    <path d="M -1.5 2 L 0 4 L 1.5 2 Z" fill="#3E2723"/>
    <!-- Pencil eraser -->
    <rect x="-1.5" y="-7" width="3" height="1" fill="#F4A460" rx="0.3"/>
  </g>

  <!-- Drawing scribble inside bubble -->
  <path d="M 12 13 Q 14 12 16 13 T 20 13" stroke="#D2691E" stroke-width="1.5" fill="none" stroke-linecap="round"/>
</svg>
